# xmcd CD database file
#
# Track frame offsets:
#	150
#	16304
#	29351
#	46010
#	69039
#	81457
#	102916
#	125955
#	142567
#	157434
#	168827
#	182052
#	193488
#	214548
#	233247
#	250134
#	273278
#
# Disc length: 4085 seconds
#
# Revision: 0
# Processed by: cddbd v1.5.2PL0 Copyright (c) Steve Scherf et al.
# Submitted via: CDex 1.51
#
DISCID=ea0ff311
DTITLE=Bo Grumpus - The Tale of a Bumble-Bee
DYEAR=1900
DGENRE=Jazz
TTITLE0=Popularity
TTITLE1=Winona
TTITLE2=The Tale of a Bumble-Bee Medley
TTITLE3=James Scott Medley
TTITLE4=St. Louis Rag
TTITLE5=All By Myself - Medley
TTITLE6=When Mr. Shakespeare Comes to Town Medley
TTITLE7=Heliotrope Boquet
TTITLE8=Whistle-itis
TTITLE9=Peaceful Henry
TTITLE10=Everybody Two-Step
TTITLE11=Chicken Charlie
TTITLE12=A Ragtime Skedaddle - Medley
TTITLE13=I'll Sit Right on the Moon - Medley
TTITLE14=Camp Meeting Time - Medley
TTITLE15=Hornpipe Polka
TTITLE16=Data
EXTD=
EXTT0=
EXTT1=
EXTT2=
EXTT3=
EXTT4=
EXTT5=
EXTT6=
EXTT7=
EXTT8=
EXTT9=
EXTT10=
EXTT11=
EXTT12=
EXTT13=
EXTT14=
EXTT15=
EXTT16=
PLAYORDER=
